<svg width="20" height="20" viewBox="0 0 192 192" fill="none" xmlns="http://www.w3.org/2000/svg">
<path d="M184 0H56C53.8783 0 51.8434 0.842856 50.3431 2.34315C48.8429 3.84344 48 5.87827 48 8V48H8C5.87827 48 3.84344 48.8429 2.34315 50.3431C0.842856 51.8434 0 53.8783 0 56V184C0 186.122 0.842856 188.157 2.34315 189.657C3.84344 191.157 5.87827 192 8 192H136C138.122 192 140.157 191.157 141.657 189.657C143.157 188.157 144 186.122 144 184V144H184C186.122 144 188.157 143.157 189.657 141.657C191.157 140.157 192 138.122 192 136V8C192 5.87827 191.157 3.84344 189.657 2.34315C188.157 0.842856 186.122 0 184 0V0ZM176 128H144V56C144 53.8783 143.157 51.8434 141.657 50.3431C140.157 48.8429 138.122 48 136 48H64V16H176V128Z" fill="white"/>
</svg>
