<svg width="156" height="83" viewBox="0 0 156 83" fill="none" xmlns="http://www.w3.org/2000/svg">
<rect x="52" width="50" height="50" rx="4" fill="#EF1861"/>
<circle cx="77" cy="25" r="13.5" stroke="white" stroke-width="3"/>
<path d="M3.72217 82V67.3H4.07217L9.39717 82H14.1472V64.875H11.3722V79.55H10.9972L5.79717 64.875H0.947168V82H3.72217ZM22.7358 69.225C24.7358 69.225 26.1608 69.7667 27.0108 70.85C27.8775 71.9333 28.3108 73.5583 28.3108 75.725C28.3108 76.8083 28.2108 77.7583 28.0108 78.575C27.8108 79.3917 27.4942 80.075 27.0608 80.625C26.6275 81.175 26.0525 81.5917 25.3358 81.875C24.6358 82.1417 23.7692 82.275 22.7358 82.275C21.7192 82.275 20.8525 82.1417 20.1358 81.875C19.4192 81.5917 18.8442 81.175 18.4108 80.625C17.9775 80.075 17.6608 79.3917 17.4608 78.575C17.2608 77.7583 17.1608 76.8083 17.1608 75.725C17.1608 74.7417 17.2525 73.85 17.4358 73.05C17.6192 72.25 17.9192 71.5667 18.3358 71C18.7692 70.4333 19.3442 70 20.0608 69.7C20.7775 69.3833 21.6692 69.225 22.7358 69.225ZM20.4858 78.975C20.8525 79.6417 21.6025 79.975 22.7358 79.975C23.2858 79.975 23.7442 79.9 24.1108 79.75C24.4775 79.5833 24.7692 79.325 24.9858 78.975C25.2025 78.625 25.3525 78.1833 25.4358 77.65C25.5192 77.1 25.5608 76.45 25.5608 75.7C25.5608 74.1833 25.3525 73.1083 24.9358 72.475C24.5358 71.8417 23.8025 71.525 22.7358 71.525C21.6692 71.525 20.9275 71.8417 20.5108 72.475C20.1108 73.1083 19.9108 74.1833 19.9108 75.7C19.9108 77.2 20.1025 78.2917 20.4858 78.975ZM37.7427 69.5V71.825H34.2927V77.325C34.2927 77.825 34.301 78.2417 34.3177 78.575C34.351 78.9083 34.4177 79.1667 34.5177 79.35C34.6177 79.5333 34.7593 79.6667 34.9427 79.75C35.126 79.8167 35.3677 79.85 35.6677 79.85L37.7177 79.775L37.8427 81.95C36.7593 82.1667 35.9093 82.275 35.2927 82.275C34.5927 82.275 34.001 82.2 33.5177 82.05C33.051 81.9 32.6677 81.65 32.3677 81.3C32.0843 80.95 31.8843 80.475 31.7677 79.875C31.651 79.275 31.5927 78.525 31.5927 77.625V71.825H29.9927V69.5H31.5927V65.875H34.2927V69.5H37.7427ZM48.8776 79.75L49.5776 79.675L49.6276 81.7C48.6776 81.8833 47.786 82.025 46.9526 82.125C46.1193 82.225 45.3276 82.275 44.5776 82.275C42.7276 82.275 41.3943 81.7667 40.5776 80.75C39.7776 79.7333 39.3776 78.1083 39.3776 75.875C39.3776 71.4417 41.186 69.225 44.8026 69.225C48.3026 69.225 50.0526 71.1333 50.0526 74.95L49.8776 76.9H42.1276C42.1443 77.9333 42.3693 78.6917 42.8026 79.175C43.236 79.6583 44.0443 79.9 45.2276 79.9C46.411 79.9 47.6276 79.85 48.8776 79.75ZM42.1026 74.8H47.3776C47.3776 73.55 47.186 72.6833 46.8026 72.2C46.4193 71.7167 45.7526 71.475 44.8026 71.475C43.8526 71.475 43.1693 71.7333 42.7526 72.25C42.336 72.75 42.1193 73.6 42.1026 74.8ZM61.3979 69.8L61.3479 72.075C60.3479 71.9417 59.4896 71.8417 58.7729 71.775C58.0729 71.7083 57.5063 71.675 57.0729 71.675C56.1729 71.675 55.5563 71.7833 55.2229 72C54.8896 72.2 54.7229 72.525 54.7229 72.975C54.7229 73.425 54.9146 73.7417 55.2979 73.925C55.4813 74.0083 55.7896 74.1083 56.2229 74.225C56.6729 74.325 57.2479 74.4333 57.9479 74.55C58.6479 74.6667 59.2396 74.8167 59.7229 75C60.2063 75.1833 60.5979 75.425 60.8979 75.725C61.1979 76.0083 61.4146 76.375 61.548 76.825C61.6979 77.2583 61.7729 77.8 61.7729 78.45C61.7729 79.7667 61.3479 80.7333 60.4979 81.35C59.6646 81.9667 58.4396 82.275 56.8229 82.275C56.3063 82.275 55.7313 82.2333 55.0979 82.15C54.4646 82.0833 53.7563 81.9833 52.9729 81.85L52.1979 81.725L52.2979 79.45C53.2979 79.5833 54.1563 79.6833 54.8729 79.75C55.6063 79.8167 56.1896 79.85 56.6229 79.85C57.5229 79.85 58.1563 79.7417 58.5229 79.525C58.8896 79.3083 59.0729 78.95 59.0729 78.45C59.0729 77.95 58.8979 77.6 58.5479 77.4C58.3646 77.3167 58.0563 77.225 57.6229 77.125C57.2063 77.0083 56.6563 76.8917 55.9729 76.775C55.2896 76.6583 54.6979 76.525 54.1979 76.375C53.7146 76.2083 53.3063 75.9917 52.9729 75.725C52.6563 75.4417 52.4146 75.0917 52.2479 74.675C52.0979 74.2583 52.0229 73.725 52.0229 73.075C52.0229 72.425 52.1396 71.8667 52.3729 71.4C52.6063 70.9167 52.9229 70.5167 53.3229 70.2C53.7396 69.8833 54.2313 69.65 54.7979 69.5C55.3813 69.3333 56.0146 69.25 56.6979 69.25C57.2313 69.25 57.8229 69.2833 58.4729 69.35C59.1229 69.4167 59.8396 69.5167 60.6229 69.65L61.3979 69.8ZM71.3099 68.05C71.3099 66.9 71.7349 65.9917 72.5849 65.325C73.4515 64.6583 74.6432 64.325 76.1599 64.325C77.6765 64.325 78.8432 64.6583 79.6599 65.325C80.4765 65.9917 80.8849 66.925 80.8849 68.125C80.8849 68.725 80.8182 69.25 80.6849 69.7C80.5682 70.15 80.3682 70.5667 80.0849 70.95C79.8015 71.3333 79.4265 71.7 78.9599 72.05C78.5099 72.3833 77.9432 72.75 77.2599 73.15L80.3099 76.175C80.3599 76.025 80.4182 75.8 80.4849 75.5C80.5515 75.2 80.6099 74.8833 80.6599 74.55C80.7099 74.2 80.7515 73.85 80.7849 73.5C80.8349 73.15 80.8682 72.85 80.8849 72.6L83.5099 72.65C83.3932 73.6667 83.2265 74.6 83.0099 75.45C82.8099 76.3 82.5682 77.075 82.2849 77.775L85.2599 80.5L83.7099 82.275L80.8849 79.825C80.3349 80.5917 79.6015 81.1917 78.6849 81.625C77.7682 82.0583 76.7599 82.275 75.6599 82.275C74.4932 82.275 73.4932 82.1667 72.6599 81.95C71.8432 81.7167 71.1765 81.3833 70.6599 80.95C70.1432 80.5167 69.7682 79.975 69.5349 79.325C69.3015 78.6583 69.1849 77.8917 69.1849 77.025C69.1849 76.325 69.2515 75.7167 69.3849 75.2C69.5349 74.6667 69.7599 74.2 70.0599 73.8C70.3599 73.4 70.7432 73.0583 71.2099 72.775C71.6765 72.475 72.2349 72.2 72.8849 71.95C72.5682 71.5667 72.3015 71.225 72.0849 70.925C71.8849 70.625 71.7265 70.3333 71.6099 70.05C71.4932 69.75 71.4099 69.4417 71.3599 69.125C71.3265 68.8083 71.3099 68.45 71.3099 68.05ZM75.3599 79.85C76.1599 79.85 76.8932 79.7167 77.5599 79.45C78.2265 79.1667 78.7182 78.7833 79.0349 78.3L74.3099 73.575C73.4599 73.8917 72.8515 74.3 72.4849 74.8C72.1182 75.2833 71.9349 75.95 71.9349 76.8C71.9349 78.8333 73.0765 79.85 75.3599 79.85ZM74.0599 68.6C74.0599 69.4167 74.4349 70.225 75.1849 71.025L75.7349 71.6C76.6182 71.1 77.2349 70.6333 77.5849 70.2C77.9515 69.7667 78.1349 69.2083 78.1349 68.525C78.1349 67.2583 77.4599 66.625 76.1099 66.625C74.7432 66.625 74.0599 67.2833 74.0599 68.6ZM96.3353 67.35V82H99.1353V67.35H103.96V64.875H91.4603V67.35H96.3353ZM110.919 69.225C112.919 69.225 114.344 69.7667 115.194 70.85C116.061 71.9333 116.494 73.5583 116.494 75.725C116.494 76.8083 116.394 77.7583 116.194 78.575C115.994 79.3917 115.678 80.075 115.244 80.625C114.811 81.175 114.236 81.5917 113.519 81.875C112.819 82.1417 111.953 82.275 110.919 82.275C109.903 82.275 109.036 82.1417 108.319 81.875C107.603 81.5917 107.028 81.175 106.594 80.625C106.161 80.075 105.844 79.3917 105.644 78.575C105.444 77.7583 105.344 76.8083 105.344 75.725C105.344 74.7417 105.436 73.85 105.619 73.05C105.803 72.25 106.103 71.5667 106.519 71C106.953 70.4333 107.528 70 108.244 69.7C108.961 69.3833 109.853 69.225 110.919 69.225ZM108.669 78.975C109.036 79.6417 109.786 79.975 110.919 79.975C111.469 79.975 111.928 79.9 112.294 79.75C112.661 79.5833 112.953 79.325 113.169 78.975C113.386 78.625 113.536 78.1833 113.619 77.65C113.703 77.1 113.744 76.45 113.744 75.7C113.744 74.1833 113.536 73.1083 113.119 72.475C112.719 71.8417 111.986 71.525 110.919 71.525C109.853 71.525 109.111 71.8417 108.694 72.475C108.294 73.1083 108.094 74.1833 108.094 75.7C108.094 77.2 108.286 78.2917 108.669 78.975ZM126.676 64.3H129.401V82H126.701V81.35C125.485 81.9667 124.368 82.275 123.351 82.275C121.718 82.275 120.518 81.7833 119.751 80.8C119.001 79.8167 118.626 78.1667 118.626 75.85C118.626 73.5333 119.043 71.85 119.876 70.8C120.726 69.75 122.043 69.225 123.826 69.225C124.126 69.225 124.51 69.25 124.976 69.3C125.46 69.35 126.026 69.4333 126.676 69.55V64.3ZM126.251 79.4L126.676 79.225V71.825C126.176 71.7417 125.693 71.6833 125.226 71.65C124.776 71.6 124.335 71.575 123.901 71.575C122.218 71.575 121.376 72.975 121.376 75.775C121.376 77.3083 121.568 78.375 121.951 78.975C122.351 79.5583 122.976 79.85 123.826 79.85C124.676 79.85 125.485 79.7 126.251 79.4ZM137.677 69.225C139.677 69.225 141.102 69.7667 141.952 70.85C142.819 71.9333 143.252 73.5583 143.252 75.725C143.252 76.8083 143.152 77.7583 142.952 78.575C142.752 79.3917 142.436 80.075 142.002 80.625C141.569 81.175 140.994 81.5917 140.277 81.875C139.577 82.1417 138.711 82.275 137.677 82.275C136.661 82.275 135.794 82.1417 135.077 81.875C134.361 81.5917 133.786 81.175 133.352 80.625C132.919 80.075 132.602 79.3917 132.402 78.575C132.202 77.7583 132.102 76.8083 132.102 75.725C132.102 74.7417 132.194 73.85 132.377 73.05C132.561 72.25 132.861 71.5667 133.277 71C133.711 70.4333 134.286 70 135.002 69.7C135.719 69.3833 136.611 69.225 137.677 69.225ZM135.427 78.975C135.794 79.6417 136.544 79.975 137.677 79.975C138.227 79.975 138.686 79.9 139.052 79.75C139.419 79.5833 139.711 79.325 139.927 78.975C140.144 78.625 140.294 78.1833 140.377 77.65C140.461 77.1 140.502 76.45 140.502 75.7C140.502 74.1833 140.294 73.1083 139.877 72.475C139.477 71.8417 138.744 71.525 137.677 71.525C136.611 71.525 135.869 71.8417 135.452 72.475C135.052 73.1083 134.852 74.1833 134.852 75.7C134.852 77.2 135.044 78.2917 135.427 78.975ZM154.684 69.8L154.634 72.075C153.634 71.9417 152.776 71.8417 152.059 71.775C151.359 71.7083 150.792 71.675 150.359 71.675C149.459 71.675 148.842 71.7833 148.509 72C148.176 72.2 148.009 72.525 148.009 72.975C148.009 73.425 148.201 73.7417 148.584 73.925C148.767 74.0083 149.076 74.1083 149.509 74.225C149.959 74.325 150.534 74.4333 151.234 74.55C151.934 74.6667 152.526 74.8167 153.009 75C153.492 75.1833 153.884 75.425 154.184 75.725C154.484 76.0083 154.701 76.375 154.834 76.825C154.984 77.2583 155.059 77.8 155.059 78.45C155.059 79.7667 154.634 80.7333 153.784 81.35C152.951 81.9667 151.726 82.275 150.109 82.275C149.592 82.275 149.017 82.2333 148.384 82.15C147.751 82.0833 147.042 81.9833 146.259 81.85L145.484 81.725L145.584 79.45C146.584 79.5833 147.442 79.6833 148.159 79.75C148.892 79.8167 149.476 79.85 149.909 79.85C150.809 79.85 151.442 79.7417 151.809 79.525C152.176 79.3083 152.359 78.95 152.359 78.45C152.359 77.95 152.184 77.6 151.834 77.4C151.651 77.3167 151.342 77.225 150.909 77.125C150.492 77.0083 149.942 76.8917 149.259 76.775C148.576 76.6583 147.984 76.525 147.484 76.375C147.001 76.2083 146.592 75.9917 146.259 75.725C145.942 75.4417 145.701 75.0917 145.534 74.675C145.384 74.2583 145.309 73.725 145.309 73.075C145.309 72.425 145.426 71.8667 145.659 71.4C145.892 70.9167 146.209 70.5167 146.609 70.2C147.026 69.8833 147.517 69.65 148.084 69.5C148.667 69.3333 149.301 69.25 149.984 69.25C150.517 69.25 151.109 69.2833 151.759 69.35C152.409 69.4167 153.126 69.5167 153.909 69.65L154.684 69.8Z" fill="#EF1861"/>
</svg>
