<svg width="215" height="50" viewBox="0 0 215 50" fill="none" xmlns="http://www.w3.org/2000/svg">
<rect width="50" height="50" rx="4" fill="#EF1861"/>
<circle cx="25" cy="25" r="13.5" stroke="white" stroke-width="3"/>
<path d="M62.7222 32V17.3H63.0722L68.3972 32H73.1472V14.875H70.3722V29.55H69.9972L64.7972 14.875H59.9472V32H62.7222ZM81.7358 19.225C83.7358 19.225 85.1608 19.7667 86.0108 20.85C86.8775 21.9333 87.3108 23.5583 87.3108 25.725C87.3108 26.8083 87.2108 27.7583 87.0108 28.575C86.8108 29.3917 86.4942 30.075 86.0608 30.625C85.6275 31.175 85.0525 31.5917 84.3358 31.875C83.6358 32.1417 82.7692 32.275 81.7358 32.275C80.7192 32.275 79.8525 32.1417 79.1358 31.875C78.4192 31.5917 77.8442 31.175 77.4108 30.625C76.9775 30.075 76.6608 29.3917 76.4608 28.575C76.2608 27.7583 76.1608 26.8083 76.1608 25.725C76.1608 24.7417 76.2525 23.85 76.4358 23.05C76.6192 22.25 76.9192 21.5667 77.3358 21C77.7692 20.4333 78.3442 20 79.0608 19.7C79.7775 19.3833 80.6692 19.225 81.7358 19.225ZM79.4858 28.975C79.8525 29.6417 80.6025 29.975 81.7358 29.975C82.2858 29.975 82.7442 29.9 83.1108 29.75C83.4775 29.5833 83.7692 29.325 83.9858 28.975C84.2025 28.625 84.3525 28.1833 84.4358 27.65C84.5192 27.1 84.5608 26.45 84.5608 25.7C84.5608 24.1833 84.3525 23.1083 83.9358 22.475C83.5358 21.8417 82.8025 21.525 81.7358 21.525C80.6692 21.525 79.9275 21.8417 79.5108 22.475C79.1108 23.1083 78.9108 24.1833 78.9108 25.7C78.9108 27.2 79.1025 28.2917 79.4858 28.975ZM96.7427 19.5V21.825H93.2927V27.325C93.2927 27.825 93.301 28.2417 93.3177 28.575C93.351 28.9083 93.4177 29.1667 93.5177 29.35C93.6177 29.5333 93.7593 29.6667 93.9427 29.75C94.126 29.8167 94.3677 29.85 94.6677 29.85L96.7177 29.775L96.8427 31.95C95.7593 32.1667 94.9093 32.275 94.2927 32.275C93.5927 32.275 93.001 32.2 92.5177 32.05C92.051 31.9 91.6677 31.65 91.3677 31.3C91.0843 30.95 90.8843 30.475 90.7677 29.875C90.651 29.275 90.5927 28.525 90.5927 27.625V21.825H88.9927V19.5H90.5927V15.875H93.2927V19.5H96.7427ZM107.878 29.75L108.578 29.675L108.628 31.7C107.678 31.8833 106.786 32.025 105.953 32.125C105.119 32.225 104.328 32.275 103.578 32.275C101.728 32.275 100.394 31.7667 99.5776 30.75C98.7776 29.7333 98.3776 28.1083 98.3776 25.875C98.3776 21.4417 100.186 19.225 103.803 19.225C107.303 19.225 109.053 21.1333 109.053 24.95L108.878 26.9H101.128C101.144 27.9333 101.369 28.6917 101.803 29.175C102.236 29.6583 103.044 29.9 104.228 29.9C105.411 29.9 106.628 29.85 107.878 29.75ZM101.103 24.8H106.378C106.378 23.55 106.186 22.6833 105.803 22.2C105.419 21.7167 104.753 21.475 103.803 21.475C102.853 21.475 102.169 21.7333 101.753 22.25C101.336 22.75 101.119 23.6 101.103 24.8ZM120.398 19.8L120.348 22.075C119.348 21.9417 118.49 21.8417 117.773 21.775C117.073 21.7083 116.506 21.675 116.073 21.675C115.173 21.675 114.556 21.7833 114.223 22C113.89 22.2 113.723 22.525 113.723 22.975C113.723 23.425 113.915 23.7417 114.298 23.925C114.481 24.0083 114.79 24.1083 115.223 24.225C115.673 24.325 116.248 24.4333 116.948 24.55C117.648 24.6667 118.24 24.8167 118.723 25C119.206 25.1833 119.598 25.425 119.898 25.725C120.198 26.0083 120.415 26.375 120.548 26.825C120.698 27.2583 120.773 27.8 120.773 28.45C120.773 29.7667 120.348 30.7333 119.498 31.35C118.665 31.9667 117.44 32.275 115.823 32.275C115.306 32.275 114.731 32.2333 114.098 32.15C113.465 32.0833 112.756 31.9833 111.973 31.85L111.198 31.725L111.298 29.45C112.298 29.5833 113.156 29.6833 113.873 29.75C114.606 29.8167 115.19 29.85 115.623 29.85C116.523 29.85 117.156 29.7417 117.523 29.525C117.89 29.3083 118.073 28.95 118.073 28.45C118.073 27.95 117.898 27.6 117.548 27.4C117.365 27.3167 117.056 27.225 116.623 27.125C116.206 27.0083 115.656 26.8917 114.973 26.775C114.29 26.6583 113.698 26.525 113.198 26.375C112.715 26.2083 112.306 25.9917 111.973 25.725C111.656 25.4417 111.415 25.0917 111.248 24.675C111.098 24.2583 111.023 23.725 111.023 23.075C111.023 22.425 111.14 21.8667 111.373 21.4C111.606 20.9167 111.923 20.5167 112.323 20.2C112.74 19.8833 113.231 19.65 113.798 19.5C114.381 19.3333 115.015 19.25 115.698 19.25C116.231 19.25 116.823 19.2833 117.473 19.35C118.123 19.4167 118.84 19.5167 119.623 19.65L120.398 19.8ZM130.31 18.05C130.31 16.9 130.735 15.9917 131.585 15.325C132.452 14.6583 133.643 14.325 135.16 14.325C136.677 14.325 137.843 14.6583 138.66 15.325C139.477 15.9917 139.885 16.925 139.885 18.125C139.885 18.725 139.818 19.25 139.685 19.7C139.568 20.15 139.368 20.5667 139.085 20.95C138.802 21.3333 138.427 21.7 137.96 22.05C137.51 22.3833 136.943 22.75 136.26 23.15L139.31 26.175C139.36 26.025 139.418 25.8 139.485 25.5C139.552 25.2 139.61 24.8833 139.66 24.55C139.71 24.2 139.752 23.85 139.785 23.5C139.835 23.15 139.868 22.85 139.885 22.6L142.51 22.65C142.393 23.6667 142.227 24.6 142.01 25.45C141.81 26.3 141.568 27.075 141.285 27.775L144.26 30.5L142.71 32.275L139.885 29.825C139.335 30.5917 138.602 31.1917 137.685 31.625C136.768 32.0583 135.76 32.275 134.66 32.275C133.493 32.275 132.493 32.1667 131.66 31.95C130.843 31.7167 130.177 31.3833 129.66 30.95C129.143 30.5167 128.768 29.975 128.535 29.325C128.302 28.6583 128.185 27.8917 128.185 27.025C128.185 26.325 128.252 25.7167 128.385 25.2C128.535 24.6667 128.76 24.2 129.06 23.8C129.36 23.4 129.743 23.0583 130.21 22.775C130.677 22.475 131.235 22.2 131.885 21.95C131.568 21.5667 131.302 21.225 131.085 20.925C130.885 20.625 130.727 20.3333 130.61 20.05C130.493 19.75 130.41 19.4417 130.36 19.125C130.327 18.8083 130.31 18.45 130.31 18.05ZM134.36 29.85C135.16 29.85 135.893 29.7167 136.56 29.45C137.227 29.1667 137.718 28.7833 138.035 28.3L133.31 23.575C132.46 23.8917 131.852 24.3 131.485 24.8C131.118 25.2833 130.935 25.95 130.935 26.8C130.935 28.8333 132.077 29.85 134.36 29.85ZM133.06 18.6C133.06 19.4167 133.435 20.225 134.185 21.025L134.735 21.6C135.618 21.1 136.235 20.6333 136.585 20.2C136.952 19.7667 137.135 19.2083 137.135 18.525C137.135 17.2583 136.46 16.625 135.11 16.625C133.743 16.625 133.06 17.2833 133.06 18.6ZM155.335 17.35V32H158.135V17.35H162.96V14.875H150.46V17.35H155.335ZM169.919 19.225C171.919 19.225 173.344 19.7667 174.194 20.85C175.061 21.9333 175.494 23.5583 175.494 25.725C175.494 26.8083 175.394 27.7583 175.194 28.575C174.994 29.3917 174.678 30.075 174.244 30.625C173.811 31.175 173.236 31.5917 172.519 31.875C171.819 32.1417 170.953 32.275 169.919 32.275C168.903 32.275 168.036 32.1417 167.319 31.875C166.603 31.5917 166.028 31.175 165.594 30.625C165.161 30.075 164.844 29.3917 164.644 28.575C164.444 27.7583 164.344 26.8083 164.344 25.725C164.344 24.7417 164.436 23.85 164.619 23.05C164.803 22.25 165.103 21.5667 165.519 21C165.953 20.4333 166.528 20 167.244 19.7C167.961 19.3833 168.853 19.225 169.919 19.225ZM167.669 28.975C168.036 29.6417 168.786 29.975 169.919 29.975C170.469 29.975 170.928 29.9 171.294 29.75C171.661 29.5833 171.953 29.325 172.169 28.975C172.386 28.625 172.536 28.1833 172.619 27.65C172.703 27.1 172.744 26.45 172.744 25.7C172.744 24.1833 172.536 23.1083 172.119 22.475C171.719 21.8417 170.986 21.525 169.919 21.525C168.853 21.525 168.111 21.8417 167.694 22.475C167.294 23.1083 167.094 24.1833 167.094 25.7C167.094 27.2 167.286 28.2917 167.669 28.975ZM185.676 14.3H188.401V32H185.701V31.35C184.485 31.9667 183.368 32.275 182.351 32.275C180.718 32.275 179.518 31.7833 178.751 30.8C178.001 29.8167 177.626 28.1667 177.626 25.85C177.626 23.5333 178.043 21.85 178.876 20.8C179.726 19.75 181.043 19.225 182.826 19.225C183.126 19.225 183.51 19.25 183.976 19.3C184.46 19.35 185.026 19.4333 185.676 19.55V14.3ZM185.251 29.4L185.676 29.225V21.825C185.176 21.7417 184.693 21.6833 184.226 21.65C183.776 21.6 183.335 21.575 182.901 21.575C181.218 21.575 180.376 22.975 180.376 25.775C180.376 27.3083 180.568 28.375 180.951 28.975C181.351 29.5583 181.976 29.85 182.826 29.85C183.676 29.85 184.485 29.7 185.251 29.4ZM196.677 19.225C198.677 19.225 200.102 19.7667 200.952 20.85C201.819 21.9333 202.252 23.5583 202.252 25.725C202.252 26.8083 202.152 27.7583 201.952 28.575C201.752 29.3917 201.436 30.075 201.002 30.625C200.569 31.175 199.994 31.5917 199.277 31.875C198.577 32.1417 197.711 32.275 196.677 32.275C195.661 32.275 194.794 32.1417 194.077 31.875C193.361 31.5917 192.786 31.175 192.352 30.625C191.919 30.075 191.602 29.3917 191.402 28.575C191.202 27.7583 191.102 26.8083 191.102 25.725C191.102 24.7417 191.194 23.85 191.377 23.05C191.561 22.25 191.861 21.5667 192.277 21C192.711 20.4333 193.286 20 194.002 19.7C194.719 19.3833 195.611 19.225 196.677 19.225ZM194.427 28.975C194.794 29.6417 195.544 29.975 196.677 29.975C197.227 29.975 197.686 29.9 198.052 29.75C198.419 29.5833 198.711 29.325 198.927 28.975C199.144 28.625 199.294 28.1833 199.377 27.65C199.461 27.1 199.502 26.45 199.502 25.7C199.502 24.1833 199.294 23.1083 198.877 22.475C198.477 21.8417 197.744 21.525 196.677 21.525C195.611 21.525 194.869 21.8417 194.452 22.475C194.052 23.1083 193.852 24.1833 193.852 25.7C193.852 27.2 194.044 28.2917 194.427 28.975ZM213.684 19.8L213.634 22.075C212.634 21.9417 211.776 21.8417 211.059 21.775C210.359 21.7083 209.792 21.675 209.359 21.675C208.459 21.675 207.842 21.7833 207.509 22C207.176 22.2 207.009 22.525 207.009 22.975C207.009 23.425 207.201 23.7417 207.584 23.925C207.767 24.0083 208.076 24.1083 208.509 24.225C208.959 24.325 209.534 24.4333 210.234 24.55C210.934 24.6667 211.526 24.8167 212.009 25C212.492 25.1833 212.884 25.425 213.184 25.725C213.484 26.0083 213.701 26.375 213.834 26.825C213.984 27.2583 214.059 27.8 214.059 28.45C214.059 29.7667 213.634 30.7333 212.784 31.35C211.951 31.9667 210.726 32.275 209.109 32.275C208.592 32.275 208.017 32.2333 207.384 32.15C206.751 32.0833 206.042 31.9833 205.259 31.85L204.484 31.725L204.584 29.45C205.584 29.5833 206.442 29.6833 207.159 29.75C207.892 29.8167 208.476 29.85 208.909 29.85C209.809 29.85 210.442 29.7417 210.809 29.525C211.176 29.3083 211.359 28.95 211.359 28.45C211.359 27.95 211.184 27.6 210.834 27.4C210.651 27.3167 210.342 27.225 209.909 27.125C209.492 27.0083 208.942 26.8917 208.259 26.775C207.576 26.6583 206.984 26.525 206.484 26.375C206.001 26.2083 205.592 25.9917 205.259 25.725C204.942 25.4417 204.701 25.0917 204.534 24.675C204.384 24.2583 204.309 23.725 204.309 23.075C204.309 22.425 204.426 21.8667 204.659 21.4C204.892 20.9167 205.209 20.5167 205.609 20.2C206.026 19.8833 206.517 19.65 207.084 19.5C207.667 19.3333 208.301 19.25 208.984 19.25C209.517 19.25 210.109 19.2833 210.759 19.35C211.409 19.4167 212.126 19.5167 212.909 19.65L213.684 19.8Z" fill="#EF1861"/>
</svg>
