<svg width="30" height="30" viewBox="0 0 30 30" fill="#447099" xmlns="http://www.w3.org/2000/svg">
<path d="M22 28H2V8H12V6H2C1.46973 6.00053 0.961329 6.21141 0.586371 6.58637C0.211413 6.96133 0.000529477 7.46973 0 8V28C0.000529477 28.5303 0.211413 29.0387 0.586371 29.4136C0.961329 29.7886 1.46973 29.9995 2 30H22C22.5303 29.9995 23.0387 29.7886 23.4136 29.4136C23.7886 29.0387 23.9995 28.5303 24 28V18H22V28Z"/>
<path d="M22 28H2V8H12V6H2C1.46973 6.00053 0.961329 6.21141 0.586371 6.58637C0.211413 6.96133 0.000529477 7.46973 0 8V28C0.000529477 28.5303 0.211413 29.0387 0.586371 29.4136C0.961329 29.7886 1.46973 29.9995 2 30H22C22.5303 29.9995 23.0387 29.7886 23.4136 29.4136C23.7886 29.0387 23.9995 28.5303 24 28V18H22V28Z"/>
<path d="M24.4 5.6V0H21.6V5.6H16V8.4H21.6V14H24.4V8.4H30V5.6H24.4Z"/>
</svg>


